#!OML:ASF F:\VICON\USERDATA\INSTALL\rory3\rory3.ASF
:FULLY-SPECIFIED
:DEGREES
1401
root -8.01137 17.7582 13.0561 170.521 237.29 -169.658
lowerback 10.6253 6.09224 2.05901
upperback 2.12741 8.17993 -2.22063
thorax -3.06892 4.03234 -4.48354
lowerneck -12.9769 7.16852 -8.34738
upperneck 46.43 11.5812 4.16311
head 19.2374 3.35681 5.56127
rclavicle 5.96851e-014 1.19271e-015
rhumerus -28.232 -4.95061 -79.93
rradius 38.0465
rwrist 1.04782
rhand -14.6537 8.71216
rfingers 7.12502
rthumb 11.4988 -20.9525
lclavicle 5.96851e-014 1.19271e-015
lhumerus -42.5513 11.9193 78.8691
lradius 33.9038
lwrist -3.90972
lhand -18.0238 26.4589
lfingers 7.12502
lthumb 8.24733 56.2779
rfemur -25.3153 -11.6856 14.5383
rtibia 33.067
rfoot -3.55563 -7.5023
rtoes 15.4959
lfemur 10.0724 -16.5354 -22.6171
ltibia 21.8502
lfoot 7.40251 -25.2489
ltoes 7.60862
1402
root -7.86704 17.7455 13.054 170.658 236.991 -169.536
lowerback 10.5896 6.11693 1.99668
upperback 2.12335 8.20513 -2.23852
thorax -3.05752 4.04573 -4.46679
lowerneck -13.1295 7.29965 -8.25451
upperneck 46.5589 11.8594 4.05105
head 19.3626 3.45446 5.56318
rclavicle -9.57148e-014 1.59028e-014
rhumerus -28.1405 -5.16487 -79.6397
rradius 38.0942
rwrist 1.15869
rhand -14.5366 8.59936
rfingers 7.12502
rthumb 11.6117 -21.0589
lclavicle -9.57148e-014 1.59028e-014
lhumerus -42.4675 12.0702 79.1062
lradius 34.0022
lwrist -4.26357
lhand -17.963 26.3789
lfingers 7.12502
lthumb 8.30603 56.1956
rfemur -25.8486 -11.774 14.1832
rtibia 32.8284
rfoot -3.01197 -7.6195
rtoes 15.9928
lfemur 10.236 -16.4313 -22.9244
ltibia 20.9475
lfoot 4.44137 -24.5973
ltoes 3.92849
1403
root -7.7226 17.7366 13.0507 170.978 236.759 -169.61
lowerback 10.5694 6.17824 2.06171
upperback 2.08353 8.29483 -2.23788
thorax -3.07114 4.08961 -4.51166
lowerneck -13.114 7.41277 -8.13991
upperneck 46.5523 12.0893 3.88976
head 19.3638 3.54902 5.5043
rclavicle -3.11098e-014 2.38542e-015
rhumerus -28.2118 -5.34849 -79.3246
rradius 38.2794
rwrist 1.03671
rhand -14.5513 8.45199
rfingers 7.12502
rthumb 11.5975 -21.2071
lclavicle -3.11098e-014 2.38542e-015
lhumerus -42.4129 11.8861 79.4936
lradius 34.1589
lwrist -4.39381
lhand -18.0779 26.2289
lfingers 7.12502
lthumb 8.19519 56.0499
rfemur -26.3578 -11.7063 13.9451
rtibia 32.4967
rfoot -2.42999 -7.85503
rtoes 16.8134
lfemur 10.2061 -16.0055 -23.0717
ltibia 20.1121
lfoot 2.11687 -24.1905
ltoes 1.69233
1404
root -7.57649 17.7303 13.0512 171.105 236.687 -169.511
lowerback 10.5718 6.28635 2.08093
upperback 2.07395 8.44039 -2.24953
thorax -3.06508 4.16217 -4.5508
lowerneck -13.148 7.53183 -8.12597
upperneck 46.6009 12.3173 3.85102
head 19.3897 3.63701 5.5283
rclavicle -1.33832e-013 8.74653e-015
rhumerus -28.2895 -5.51698 -78.971
rradius 38.5134
rwrist 0.978039
rhand -14.6769 8.09893
rfingers 7.12502
rthumb 11.4764 -21.5669
lclavicle -1.33832e-013 8.74653e-015
lhumerus -42.3512 11.6923 79.9275
lradius 34.2386
lwrist -4.72899
lhand -18.1812 25.8111
lfingers 7.12502
lthumb 8.0955 55.6361
rfemur -26.7908 -11.5322 13.6323
rtibia 32.0494
rfoot -1.79295 -8.04804
rtoes 17.4038
lfemur 10.169 -15.4307 -23.348
ltibia 19.2977
lfoot 0.666143 -23.7487
ltoes 0.942455
1405
root -7.42992 17.7263 13.053 171.05 236.667 -169.241
lowerback 10.6234 6.40002 2.00299
upperback 2.06408 8.58088 -2.29288
thorax -3.09592 4.2315 -4.5762
lowerneck -13.1642 7.66522 -8.0567
upperneck 46.5996 12.551 3.791
head 19.3842 3.7388 5.52783
rclavicle -1.88845e-014 -6.36111e-015
rhumerus -28.2738 -5.86069 -78.6585
rradius 38.5745
rwrist 1.1113
rhand -14.8401 8.03236
rfingers 7.12502
rthumb 11.319 -21.6422
lclavicle -1.88845e-014 -6.36111e-015
lhumerus -42.2492 11.612 80.2469
lradius 34.257
lwrist -5.10843
lhand -18.0738 25.8207
lfingers 7.12502
lthumb 8.19909 55.6416
rfemur -27.1331 -11.3595 13.2129
rtibia 31.4938
rfoot -1.11726 -8.13712
rtoes 17.5756
lfemur 10.2029 -14.9518 -23.7571
ltibia 18.4626
lfoot -0.569682 -23.0542
ltoes 0.431439
1406
root -7.28312 17.7273 13.0512 171.097 236.604 -169.038
lowerback 10.6713 6.46501 1.91277
upperback 2.03392 8.65473 -2.3519
thorax -3.15118 4.26688 -4.60534
lowerneck -13.2363 7.79649 -7.91765
upperneck 46.6024 12.7821 3.69215
head 19.411 3.84143 5.50302
rclavicle 4.62671e-014 -4.37326e-015
rhumerus -28.1435 -6.36502 -78.4389
rradius 38.4746
rwrist 1.36426
rhand -14.8176 8.40255
rfingers 7.12502
rthumb 11.3406 -21.2708
lclavicle 4.62671e-014 -4.37326e-015
lhumerus -42.0964 11.492 80.4835
lradius 34.3456
lwrist -5.25755
lhand -17.9583 26.3459
lfingers 7.12502
lthumb 8.31054 56.1624
rfemur -27.4481 -11.1519 12.796
rtibia 30.8465
rfoot -0.32974 -8.22656
rtoes 17.2821
lfemur 10.14 -14.5955 -24.1045
ltibia 17.6362
lfoot -2.01866 -22.1071
ltoes -0.452026
